<svg xmlns="http://www.w3.org/2000/svg" viewBox="0 0 258.73 72.84"><defs><style>.cls-4{fill:#fff}</style></defs><g id="Layer_2" data-name="Layer 2"><g id="Layer_1-2" data-name="Layer 1"><path d="M234.84 22.66a13.4 13.4 0 00-13.62 13.77 13.42 13.42 0 0013.62 13.83A13.16 13.16 0 00245 45.73l-2.32-2a3.2 3.2 0 00-3.73-.38 7.93 7.93 0 01-4.14 1.1 7.43 7.43 0 01-7.37-5.12h20.88v-2.87c.03-6.69-4.71-13.8-13.48-13.8zm-7.38 10.9a7.43 7.43 0 017.38-5.11 7.25 7.25 0 017.26 5.11zM96.89 22.66A13.62 13.62 0 0089.07 25v-2.3h-2.5a3.29 3.29 0 00-3.29 3.3v24.35h2.49a3.3 3.3 0 003.3-3.29V36.43c0-4.7 3.21-8 7.82-8a8.86 8.86 0 011.74.16 3.4 3.4 0 003.64-1.55l1.52-2.64a13.62 13.62 0 00-6.9-1.74zM216.07 22.6a3.29 3.29 0 00-3.07 2.09l-6.6 16.88L199 22.6h-7l10.91 27.84-3.88 9.88h4.71a3.29 3.29 0 003.06-2.09l14-35.63zM256.24 12.62a3.29 3.29 0 00-3.3 3.29v34.41h2.5a3.29 3.29 0 003.29-3.32V12.62zM125.62 25.08a13.7 13.7 0 00-21.48 11.35 13.7 13.7 0 0021.34 11.5v2.42H128a3.29 3.29 0 003.29-3.29V22.7h-2.49a3.29 3.29 0 00-3.18 2.38zM123.55 42a7.47 7.47 0 01-5.8 2.51c-4.61 0-7.82-3.3-7.82-8s3.21-8 7.82-8c5.31 0 7.73 4.15 7.73 8a8.45 8.45 0 01-1.93 5.49zM181.88 25.08a13.7 13.7 0 00-21.48 11.35 13.7 13.7 0 0021.34 11.5v2.42h2.49a3.29 3.29 0 003.29-3.29V22.7H185a3.29 3.29 0 00-3.12 2.38zM179.81 42a7.47 7.47 0 01-5.8 2.51c-4.6 0-7.82-3.3-7.82-8s3.22-8 7.82-8c5.31 0 7.73 4.15 7.73 8a8.45 8.45 0 01-1.93 5.49zM145.67 39.43c2.07.16 4.53.74 4.53 2.58s-2.66 2.57-4.94 2.57a8.14 8.14 0 01-3.48-.74 3.31 3.31 0 00-3.76.55l-2.24 2.18a13 13 0 009.48 3.79C151.68 50.36 156 47 156 42c0-4.75-3.69-7.87-9.88-8.35-2.07-.16-4.54-.74-4.54-2.57s2.66-2.57 4.94-2.57a8 8 0 013.48.74 3.31 3.31 0 003.76-.55l2.24-2.17a13 13 0 00-9.48-3.8c-6.42 0-10.73 3.36-10.73 8.36 0 4.74 3.7 7.86 9.89 8.34"/><path d="M24.27 60.92a1.79 1.79 0 000-.23V30.35h-.06c0-.35.06-.71.06-1.07a12.15 12.15 0 00-24.27 0c0 .36 0 .72.05 1.07H0v30.34a12.15 12.15 0 0012.14 12.15h12.15V60.92z" fill="#005de4"/><path d="M0 50.36s2.68-7.87 14.13-7.87h18.44v-10.8L0 31.81z" fill="#0056bb"/><path d="M66.76 12.14A12.14 12.14 0 0054.62 0H42.48V42.48h.05c0 .36-.05.72-.05 1.08a12.14 12.14 0 0024.28 0c0-.36 0-.72-.05-1.08h.05z" fill="#00c09b"/><circle class="cls-4" cx="51.58" cy="48.56" r="1.8"/><circle class="cls-4" cx="39.46" cy="48.56" r="1.8"/><circle class="cls-4" cx="27.35" cy="48.56" r="1.8"/><path d="M66.79 22.47s-2.69 7.88-14.14 7.88H34.22v10.8L66.79 41z" fill="#00b491"/><path d="M51.76 36.42H24.3a12.14 12.14 0 100 24.27h30.32a12.13 12.13 0 0012.14-12.14V21.48a15.15 15.15 0 01-15 14.94z" fill="#05d5a3"/><path d="M42.47 12.15H12.14A12.13 12.13 0 000 24.28v27.08a15.13 15.13 0 0115-14.94h27.47a12.14 12.14 0 100-24.27z" fill="#3679ff"/><circle class="cls-4" cx="39.43" cy="24.35" r="1.8"/><circle class="cls-4" cx="27.32" cy="24.35" r="1.8"/><circle class="cls-4" cx="15.21" cy="24.35" r="1.8"/><circle class="cls-4" cx="27.36" cy="48.48" r="1.8"/><circle class="cls-4" cx="39.47" cy="48.48" r="1.8"/><circle class="cls-4" cx="51.58" cy="48.48" r="1.8"/></g></g></svg>