<svg xmlns="http://www.w3.org/2000/svg" version="1.1" id="svg60" viewBox="0 0 66.79 72.84"><defs id="defs12"><style id="style10">.cls-5{fill:#fff}</style></defs><g id="Layer_2" data-name="Layer 2"><g id="Layer_1-2" data-name="Layer 1"><path d="M24.27 60.92a1.79 1.79 0 000-.23V30.35h-.06c0-.35.06-.71.06-1.07a12.15 12.15 0 00-24.27 0c0 .36 0 .72.05 1.07H0v30.34a12.15 12.15 0 0012.14 12.15h12.15V60.92z" id="path28" fill="#005de4"/><path d="M0 50.36s2.68-7.87 14.13-7.87h18.44v-10.8L0 31.81z" id="path30" fill="#0056bb"/><path d="M66.76 12.14A12.14 12.14 0 0054.62 0H42.48V42.48h.05c0 .36-.05.72-.05 1.08a12.14 12.14 0 0024.28 0c0-.36 0-.72-.05-1.08h.05z" id="path32" fill="#00c09b"/><circle class="cls-5" cx="51.58" cy="48.56" r="1.8" id="circle34"/><circle class="cls-5" cx="39.46" cy="48.56" r="1.8" id="circle36"/><circle class="cls-5" cx="27.35" cy="48.56" r="1.8" id="circle38"/><path d="M66.79 22.47s-2.69 7.88-14.14 7.88H34.22v10.8L66.79 41z" id="path40" fill="#00b491"/><path d="M51.76 36.42H24.3a12.14 12.14 0 100 24.27h30.32a12.13 12.13 0 0012.14-12.14V21.48a15.15 15.15 0 01-15 14.94z" id="path42" fill="#05d5a3"/><path d="M42.47 12.15H12.14A12.13 12.13 0 000 24.28v27.08a15.13 15.13 0 0115-14.94h27.47a12.14 12.14 0 100-24.27z" id="path44" fill="#3679ff"/><circle class="cls-5" cx="39.43" cy="24.35" r="1.8" id="circle46"/><circle class="cls-5" cx="27.32" cy="24.35" r="1.8" id="circle48"/><circle class="cls-5" cx="15.21" cy="24.35" r="1.8" id="circle50"/><circle class="cls-5" cx="27.36" cy="48.48" r="1.8" id="circle52"/><circle class="cls-5" cx="39.47" cy="48.48" r="1.8" id="circle54"/><circle class="cls-5" cx="51.58" cy="48.48" r="1.8" id="circle56"/></g></g></svg>